<?xml version="1.0" encoding="UTF-8" standalone="no"?>
<!-- Created with Inkscape (http://www.inkscape.org/) -->

<svg
   xmlns:dc="http://purl.org/dc/elements/1.1/"
   xmlns:cc="http://creativecommons.org/ns#"
   xmlns:rdf="http://www.w3.org/1999/02/22-rdf-syntax-ns#"
   xmlns:svg="http://www.w3.org/2000/svg"
   xmlns="http://www.w3.org/2000/svg"
   xmlns:sodipodi="http://sodipodi.sourceforge.net/DTD/sodipodi-0.dtd"
   xmlns:inkscape="http://www.inkscape.org/namespaces/inkscape"
   width="113.01987mm"
   height="82.413971mm"
   viewBox="0 0 113.01987 82.413971"
   version="1.1"
   id="svg8"
   inkscape:version="0.92.4 (unknown)"
   sodipodi:docname="arrow-pointing-to-menu.svg">
  <defs
     id="defs2" />
  <sodipodi:namedview
     id="base"
     pagecolor="#ffffff"
     bordercolor="#666666"
     borderopacity="1.0"
     inkscape:pageopacity="0.0"
     inkscape:pageshadow="2"
     inkscape:zoom="2.8"
     inkscape:cx="316.89081"
     inkscape:cy="237.67891"
     inkscape:document-units="mm"
     inkscape:current-layer="layer1"
     showgrid="false"
     inkscape:window-width="1440"
     inkscape:window-height="742"
     inkscape:window-x="0"
     inkscape:window-y="0"
     inkscape:window-maximized="1"
     fit-margin-top="0"
     fit-margin-left="0"
     fit-margin-right="0"
     fit-margin-bottom="0" />
  <metadata
     id="metadata5">
    <rdf:RDF>
      <cc:Work
         rdf:about="">
        <dc:format>image/svg+xml</dc:format>
        <dc:type
           rdf:resource="http://purl.org/dc/dcmitype/StillImage" />
        <dc:title />
      </cc:Work>
    </rdf:RDF>
  </metadata>
  <g
     inkscape:label="Layer 1"
     inkscape:groupmode="layer"
     id="layer1"
     transform="translate(-59.354817,-84.956753)">
    <path
       style="fill:#ffcc00;stroke-width:0.26458335"
       d="m 69.609044,166.80284 c -2.12312,-0.84144 -9.68723,-5.61355 -10.246176,-6.4642 -0.183623,-0.27945 2.797105,-1.99624 6.556597,-3.77637 2.717221,-1.28661 4.152274,-1.79717 5.737203,-2.04118 l 0.71396,-0.10992 -0.601163,1.9705 c -0.330641,1.08377 -0.701744,2.16246 -0.824677,2.39707 -0.198479,0.37879 0.0041,0.3955 1.808823,0.14921 11.059274,-1.50924 21.155025,-7.2673 27.958339,-15.94588 0.98444,-1.2558 2.2191,-2.98293 2.74367,-3.83806 1.30657,-2.12993 1.55122,-2.2751 2.73754,-1.62445 1.49885,0.82206 1.52633,1.08667 0.32362,3.11594 -1.60288,2.70446 -5.58632,7.54132 -8.126675,9.86775 -2.801359,2.56546 -8.649528,6.42728 -12.05088,7.95778 -4.410511,1.98458 -10.900143,3.73386 -14.559336,3.92448 l -1.15239,0.06 0.480034,2.17697 c 0.437512,1.98411 0.39672,2.91725 -0.119043,2.72312 -0.10762,-0.0405 -0.728368,-0.28476 -1.379446,-0.5428 z"
       id="path826"
       inkscape:connector-curvature="0" />
    <text
       xml:space="preserve"
       style="font-style:normal;font-weight:normal;font-size:10.58333302px;line-height:1.25;font-family:sans-serif;letter-spacing:0px;word-spacing:0px;fill:#000000;fill-opacity:1;stroke:none;stroke-width:0.26458332"
       x="26.242861"
       y="143.2269"
       id="text830"
       transform="rotate(-18.911897)"><tspan
         sodipodi:role="line"
         id="tspan828"
         x="26.242861"
         y="143.2269"
         style="font-style:normal;font-variant:normal;font-weight:normal;font-stretch:normal;font-family:'Fira Code';-inkscape-font-specification:'Fira Code';stroke-width:0.26458332">choose a tutorial</tspan><tspan
         sodipodi:role="line"
         x="26.242861"
         y="156.66139"
         style="font-style:normal;font-variant:normal;font-weight:normal;font-stretch:normal;font-family:'Fira Code';-inkscape-font-specification:'Fira Code';stroke-width:0.26458332"
         id="tspan832">to get started</tspan></text>
  </g>
</svg>
