<?xml version="1.0" encoding="UTF-8" standalone="no"?>
<!-- Created with Inkscape (http://www.inkscape.org/) -->

<svg
   xmlns:dc="http://purl.org/dc/elements/1.1/"
   xmlns:cc="http://creativecommons.org/ns#"
   xmlns:rdf="http://www.w3.org/1999/02/22-rdf-syntax-ns#"
   xmlns:svg="http://www.w3.org/2000/svg"
   xmlns="http://www.w3.org/2000/svg"
   xmlns:sodipodi="http://sodipodi.sourceforge.net/DTD/sodipodi-0.dtd"
   xmlns:inkscape="http://www.inkscape.org/namespaces/inkscape"
   width="44.68782mm"
   height="25.383511mm"
   viewBox="0 0 44.68782 25.383511"
   version="1.1"
   id="svg8"
   inkscape:version="0.92.4 (unknown)"
   sodipodi:docname="arrow-pointing-to-menu.svg">
  <defs
     id="defs2" />
  <sodipodi:namedview
     id="base"
     pagecolor="#ffffff"
     bordercolor="#666666"
     borderopacity="1.0"
     inkscape:pageopacity="0.0"
     inkscape:pageshadow="2"
     inkscape:zoom="2.8"
     inkscape:cx="81.469632"
     inkscape:cy="65.185105"
     inkscape:document-units="mm"
     inkscape:current-layer="layer1"
     showgrid="false"
     fit-margin-top="0"
     fit-margin-left="0"
     fit-margin-right="0"
     fit-margin-bottom="0"
     inkscape:window-width="1440"
     inkscape:window-height="742"
     inkscape:window-x="0"
     inkscape:window-y="0"
     inkscape:window-maximized="1" />
  <metadata
     id="metadata5">
    <rdf:RDF>
      <cc:Work
         rdf:about="">
        <dc:format>image/svg+xml</dc:format>
        <dc:type
           rdf:resource="http://purl.org/dc/dcmitype/StillImage" />
        <dc:title></dc:title>
      </cc:Work>
    </rdf:RDF>
  </metadata>
  <g
     inkscape:label="Layer 1"
     inkscape:groupmode="layer"
     id="layer1"
     transform="translate(-71.16107,-64.591669)">
    <path
       style="fill:#ffcc00;fill-opacity:1;stroke-width:0.26458335"
       d="m 85.65482,86.284637 c 2.288794,2.040032 4.132957,3.299333 4.454339,3.041687 0.102539,-0.0822 0.134447,-0.718178 0.0709,-1.413279 -0.06355,-0.695105 -0.05304,-1.313933 0.02336,-1.375177 0.0764,-0.06125 0.65112,-0.128033 1.277166,-0.148427 1.950751,-0.06353 5.6258,-0.95731 7.58397,-1.844433 2.600665,-1.178201 6.039865,-3.949527 7.789605,-6.276848 1.40562,-1.869667 2.7351,-4.389963 3.01111,-5.708163 0.15359,-0.734343 0.0973,-0.864654 -0.50633,-1.169395 -0.37365,-0.188635 -0.79924,-0.246874 -0.94574,-0.129422 -0.1465,0.117447 -0.70258,1.165936 -1.2357,2.329984 -0.53313,1.164046 -1.48711,2.768127 -2.11993,3.564631 -1.46325,1.841694 -4.73698,4.464959 -6.794346,5.444357 -1.779145,0.846957 -5.085264,1.674097 -6.639055,1.660975 l -1.020626,-0.0086 0.595088,-1.254987 c 0.555666,-1.171873 0.553944,-1.261607 -0.02608,-1.354895 -1.075208,-0.172931 -7.836476,1.990956 -7.754053,2.481615 0.01814,0.108103 1.024509,1.080291 2.236328,2.160402 z"
       id="path826"
       inkscape:connector-curvature="0" />
    <text
       xml:space="preserve"
       style="font-style:normal;font-weight:normal;font-size:3.86018968px;line-height:1.25;font-family:sans-serif;letter-spacing:0px;word-spacing:0px;fill:#000000;fill-opacity:1;stroke:none;stroke-width:0.09650474"
       x="59.022728"
       y="86.658127"
       id="text818"
       transform="rotate(-9.9291819)"><tspan
         sodipodi:role="line"
         id="tspan816"
         x="59.022728"
         y="86.658127"
         style="font-style:normal;font-variant:normal;font-weight:normal;font-stretch:normal;font-family:'Fira Code';-inkscape-font-specification:'Fira Code';stroke-width:0.09650474">choose a tutorial</tspan><tspan
         sodipodi:role="line"
         x="59.022728"
         y="91.558258"
         style="font-style:normal;font-variant:normal;font-weight:normal;font-stretch:normal;font-family:'Fira Code';-inkscape-font-specification:'Fira Code';stroke-width:0.09650474"
         id="tspan820">from the menu</tspan></text>
  </g>
</svg>
