<?xml version="1.0" encoding="UTF-8" standalone="no"?>
<svg
   xmlns:dc="http://purl.org/dc/elements/1.1/"
   xmlns:cc="http://creativecommons.org/ns#"
   xmlns:rdf="http://www.w3.org/1999/02/22-rdf-syntax-ns#"
   xmlns:svg="http://www.w3.org/2000/svg"
   xmlns="http://www.w3.org/2000/svg"
   id="svg8"
   version="1.1"
   viewBox="0 0 101.6742 18.807981"
   height="18.807981mm"
   width="101.6742mm">
  <defs
     id="defs2" />
  <metadata
     id="metadata5">
    <rdf:RDF>
      <cc:Work
         rdf:about="">
        <dc:format>image/svg+xml</dc:format>
        <dc:type
           rdf:resource="http://purl.org/dc/dcmitype/StillImage" />
        <dc:title></dc:title>
      </cc:Work>
    </rdf:RDF>
  </metadata>
  <g
     transform="translate(-31.987802,-107.35129)"
     id="layer1">
    <path
       id="path842"
       d="m 65.255581,125.74878 c -1.518071,-0.66025 -1.670769,-1.337 -1.670769,-7.40481 v -5.4371 h 0.778329 0.778328 l 0.08157,5.31554 c 0.0813,5.29791 0.08375,5.31731 0.738935,5.84735 0.890139,0.72012 2.404564,0.50522 3.673347,-0.52126 l 0.960952,-0.77744 0.07198,-4.93209 0.07198,-4.9321 h 0.920203 0.920204 v 6.4823 6.48229 h -0.926042 c -0.860586,0 -0.926042,-0.0584 -0.926042,-0.82602 0,-0.8097 -0.01177,-0.81739 -0.595312,-0.38906 -1.016203,0.7459 -2.681268,1.46825 -3.373438,1.46349 -0.363802,-0.002 -1.040706,-0.16949 -1.504231,-0.37109 z"
       style="fill:#393c6c;fill-opacity:1;stroke-width:0.26458335" />
    <path
       id="path840"
       d="m 89.951914,125.74978 c -2.317779,-0.8264 -3.216103,-2.64016 -3.215978,-6.49323 6.9e-5,-2.15182 0.09526,-2.70386 0.661458,-3.83607 0.364977,-0.72984 1.055431,-1.58354 1.540656,-1.90493 2.06136,-1.36534 5.008049,-0.92732 6.27167,0.93226 0.821063,1.20831 0.81897,1.47376 -0.01463,1.85357 -0.596662,0.27185 -0.69451,0.23734 -0.906282,-0.31966 -0.338434,-0.89019 -1.540042,-1.75225 -2.442398,-1.75225 -1.124522,0 -2.259918,0.68027 -2.767489,1.65812 -0.588465,1.13371 -0.784767,4.36071 -0.357989,5.88501 0.432311,1.54406 1.777145,2.77562 3.030913,2.77562 0.980607,0 2.380279,-0.98044 2.660616,-1.8637 0.191643,-0.60382 0.627374,-0.65929 1.302271,-0.16579 0.457927,0.33484 0.446257,0.40434 -0.242766,1.44552 -0.79688,1.20417 -2.477955,2.17853 -3.726415,2.15986 -0.427001,-0.006 -1.234136,-0.17483 -1.793635,-0.37432 z"
       style="fill:#393c6c;fill-opacity:1;stroke-width:0.26458335" />
    <path
       id="path838"
       d="m 100.73921,125.52455 c -0.920195,-0.79152 -1.13501,-2.11391 -1.155293,-7.11192 l -0.01577,-3.88663 -0.992187,-0.0821 c -0.861399,-0.0713 -1.003223,-0.17803 -1.075907,-0.80972 -0.07907,-0.68717 -0.0245,-0.72761 0.981884,-0.72761 h 1.065607 l 0.07645,-2.3151 0.07645,-2.3151 0.859896,-0.0829 0.8599,-0.0829 v 2.39801 2.39801 h 1.4552 c 1.44051,0 1.45521,0.008 1.45521,0.79375 0,0.78574 -0.0147,0.79375 -1.45521,0.79375 h -1.4552 v 4.43905 c 0,5.18519 0.14295,5.61512 1.86708,5.61512 0.92288,0 1.04333,0.0728 1.04333,0.6306 0,1.11303 -2.42769,1.34674 -3.59143,0.34573 z"
       style="fill:#307185;fill-opacity:1;stroke-width:0.26458335" />
    <path
       id="path836"
       d="m 107.8535,125.74846 c -1.51807,-0.66025 -1.67077,-1.337 -1.67077,-7.40481 v -5.4371 h 0.77833 0.77833 l 0.0816,5.31554 c 0.0813,5.29791 0.0837,5.31731 0.73893,5.84735 0.89014,0.72012 2.40457,0.50522 3.67335,-0.52126 l 0.96095,-0.77744 0.072,-4.93209 0.072,-4.9321 h 0.92021 0.9202 v 6.4823 6.48229 h -0.92604 c -0.86059,0 -0.92604,-0.0584 -0.92604,-0.82602 0,-0.8097 -0.0118,-0.81739 -0.59532,-0.38906 -1.0162,0.7459 -2.68127,1.46825 -3.37343,1.46349 -0.36381,-0.002 -1.04071,-0.16949 -1.50424,-0.37109 z"
       style="fill:#307185;fill-opacity:1;stroke-width:0.26458335" />
    <path
       id="path834"
       d="m 120.05379,125.52455 c -0.92019,-0.79152 -1.13501,-2.11391 -1.15529,-7.11192 l -0.0158,-3.88663 -0.99219,-0.0821 c -0.8614,-0.0713 -1.00322,-0.17803 -1.0759,-0.80972 -0.0791,-0.68717 -0.0245,-0.72761 0.98188,-0.72761 h 1.06561 l 0.0765,-2.3151 0.0764,-2.3151 0.85989,-0.0829 0.8599,-0.0829 v 2.39801 2.39801 H 122.19 c 1.4405,0 1.4552,0.008 1.4552,0.79375 0,0.78574 -0.0147,0.79375 -1.4552,0.79375 h -1.45521 v 4.43905 c 0,5.18519 0.14295,5.61512 1.86708,5.61512 0.92289,0 1.04333,0.0728 1.04333,0.6306 0,1.11303 -2.42769,1.34674 -3.59143,0.34573 z"
       style="fill:#307185;fill-opacity:1;stroke-width:0.26458335" />
    <path
       id="path832"
       d="m 127.48169,125.75261 c -1.0077,-0.36989 -2.51354,-1.7224 -2.51354,-2.25759 0,-0.1381 0.25086,-0.38536 0.55748,-0.54945 0.478,-0.25582 0.68333,-0.17637 1.44024,0.55726 1.74487,1.69119 4.88145,1.17442 4.88145,-0.80426 0,-0.4141 -0.0742,-0.94631 -0.16493,-1.18269 -0.17021,-0.44357 -1.93248,-1.46359 -2.53652,-1.46816 -0.18769,-0.001 -0.96414,-0.29258 -1.72544,-0.64702 -1.62031,-0.75438 -2.44984,-1.91051 -2.45129,-3.41642 -8e-4,-0.8323 0.18616,-1.21047 1.00165,-2.02596 1.69709,-1.69709 4.50242,-1.69493 6.36198,0.005 l 0.88232,0.80654 -0.61342,0.49672 c -0.60766,0.49206 -0.62163,0.48952 -1.48684,-0.27015 -1.00108,-0.87896 -2.26418,-1.00951 -3.51399,-0.36321 -0.62657,0.32401 -0.78061,0.57698 -0.78061,1.28191 0,1.1066 0.54474,1.6058 2.47813,2.27099 2.27557,0.78291 3.54197,1.58908 3.99458,2.5429 1.55278,3.27224 -2.06424,6.39906 -5.81125,5.02367 z"
       style="fill:#307185;fill-opacity:1;stroke-width:0.26458335" />
    <path
       id="path830"
       d="M 57.234812,120.19857 V 114.526 l -0.992187,-0.0821 c -0.8614,-0.0713 -1.003223,-0.17803 -1.075908,-0.80972 -0.07918,-0.68819 -0.02544,-0.72761 0.992188,-0.72761 h 1.075907 v -1.57027 c 0,-0.86365 0.116095,-1.87563 0.257989,-2.24884 0.378137,-0.99457 1.76318,-1.73498 3.24774,-1.73615 1.220243,-9.6e-4 1.256771,0.0221 1.256771,0.79276 0,0.73355 -0.07156,0.79375 -0.943435,0.79375 -1.68337,0 -1.966981,0.32561 -1.966981,2.25827 v 1.71048 h 1.472782 c 1.450579,0 1.47152,0.011 1.389063,0.72761 -0.07809,0.67864 -0.177201,0.73298 -1.472783,0.80758 l -1.389062,0.08 v 5.67471 5.67472 h -0.926042 -0.926042 z"
       style="fill:#393c6c;fill-opacity:1;stroke-width:0.26458335" />
    <path
       id="path826"
       d="m 75.226479,119.38885 v -6.4823 h 0.926041 c 0.886314,0 0.926042,0.0407 0.926042,0.94957 v 0.94956 l 0.859896,-0.72508 c 1.769131,-1.49174 3.440589,-1.79899 4.910714,-0.90268 1.457338,0.88851 1.637723,1.71738 1.637723,7.52534 v 5.16788 h -0.926041 -0.926042 v -5.27247 -5.27246 l -0.69714,-0.54837 c -0.980869,-0.77155 -1.950971,-0.6837 -3.440147,0.31153 l -1.286671,0.85989 -0.07199,4.96094 -0.07198,4.96094 H 76.14668 75.226477 Z"
       style="fill:#393c6c;fill-opacity:1;stroke-width:0.26458335" />
    <g
       transform="translate(-0.1889881,-1.889881)"
       style="fill:#393c6c;fill-opacity:1;stroke:none"
       id="g846">
      <path
         id="path879"
         style="fill:#353564;fill-rule:evenodd;stroke:none;stroke-width:1.76551318;stroke-linejoin:round"
         d="m 32.17679,113.02564 v 7.39741 l 12.716213,-1.09561 v -7.13315 z" />
      <path
         id="path881"
         style="fill:#afafde;fill-rule:evenodd;stroke:none;stroke-width:1.76551318;stroke-linejoin:round"
         d="m 32.17679,120.42305 3.635022,7.53724 15.543071,-1.6855 -6.46188,-6.94735 z" />
      <path
         id="path883"
         style="fill:#e9e9ff;fill-rule:evenodd;stroke:none;stroke-width:1.76551318;stroke-linejoin:round"
         d="m 44.893003,112.19429 6.46188,5.27167 v 8.80883 l -6.46188,-6.94735 z" />
      <path
         id="path885"
         style="fill:#4d4d9f;fill-rule:evenodd;stroke:none;stroke-width:1.76551318;stroke-linejoin:round"
         d="m 32.17679,113.02564 3.635022,5.71928 15.543071,-1.27896 -6.46188,-5.27167 z" />
      <path
         id="path887"
         style="fill:#d7d7ff;fill-rule:evenodd;stroke:none;stroke-width:1.76551318;stroke-linejoin:round"
         d="m 35.811812,118.74492 v 9.21537 l 15.543071,-1.6855 v -8.80883 z" />
      <path
         id="path889"
         style="fill:#8686bf;fill-rule:evenodd;stroke:none;stroke-width:1.76551318;stroke-linejoin:round"
         d="m 32.17679,113.02564 3.635022,5.71928 v 9.21537 l -3.635022,-7.53724 z" />
    </g>
  </g>
</svg>
