<?xml version="1.0" encoding="UTF-8" standalone="no"?>
<svg
   xmlns:dc="http://purl.org/dc/elements/1.1/"
   xmlns:cc="http://creativecommons.org/ns#"
   xmlns:rdf="http://www.w3.org/1999/02/22-rdf-syntax-ns#"
   xmlns:svg="http://www.w3.org/2000/svg"
   xmlns="http://www.w3.org/2000/svg"
   id="svg8"
   version="1.1"
   viewBox="0 0 97.778999 16.953072"
   height="16.953072mm"
   width="97.778999mm">
  <defs
     id="defs2" />
  <metadata
     id="metadata5">
    <rdf:RDF>
      <cc:Work
         rdf:about="">
        <dc:format>image/svg+xml</dc:format>
        <dc:type
           rdf:resource="http://purl.org/dc/dcmitype/StillImage" />
        <dc:title></dc:title>
      </cc:Work>
    </rdf:RDF>
  </metadata>
  <g
     transform="translate(-21.733633,-127.23557)"
     id="layer1">
    <rect
       y="128.50345"
       x="57.195679"
       height="15.685198"
       width="31.470985"
       id="rect918"
       style="fill:#ffff71;fill-opacity:1;stroke:none;stroke-width:0.52265996" />
    <g
       style="fill:#194e5b;fill-opacity:1"
       id="g891">
      <path
         style="fill:#194e5b;fill-opacity:1;stroke-width:0.26458335"
         d="m 59.588253,142.14527 c -0.494885,-0.62914 -0.54837,-1.05494 -0.54837,-4.36562 v -3.66849 h -0.661459 c -0.529166,0 -0.661458,-0.13229 -0.661458,-0.66145 0,-0.52917 0.132292,-0.66146 0.661458,-0.66146 0.604954,0 0.661459,-0.0991 0.661459,-1.15977 0,-0.97906 0.09276,-1.18462 0.595312,-1.3193 1.157976,-0.31033 1.256771,-0.21944 1.256771,1.15615 v 1.32292 h 1.058333 c 0.9525,0 1.058334,0.0661 1.058334,0.66146 0,0.59531 -0.105834,0.66145 -1.058334,0.66145 h -1.058333 v 3.40719 c 0,3.72954 0.163322,4.16946 1.429901,3.85157 0.628975,-0.15787 0.686766,-0.10316 0.686766,0.65006 0,0.81917 -0.0057,0.82243 -1.436005,0.82243 -1.236202,0 -1.512303,-0.097 -1.984375,-0.69714 z"
         id="path874" />
      <path
         style="fill:#194e5b;fill-opacity:1;stroke-width:0.26458335"
         d="m 65.899023,142.16047 c -0.605142,-0.64337 -0.646306,-0.89037 -0.727575,-4.36562 l -0.08615,-3.68367 H 64.44384 c -0.507836,0 -0.641461,-0.13779 -0.641461,-0.66145 0,-0.63206 0.07056,-0.66146 1.5875,-0.66146 h 1.5875 l 0.004,3.9026 c 0.0021,2.14643 0.09744,4.04964 0.211592,4.22935 0.38834,0.6114 1.71403,0.65391 2.62863,0.0843 l 0.8599,-0.53555 v -3.17889 -3.17889 h -0.66146 c -0.52917,0 -0.66146,-0.13229 -0.66146,-0.66145 0,-0.62538 0.0794,-0.66146 1.45521,-0.66146 h 1.45521 v 4.23333 4.23333 h 0.66146 c 0.52916,0 0.66146,0.1323 0.66146,0.66146 0,0.62538 -0.0794,0.66146 -1.45521,0.66146 -0.81804,0 -1.45521,-0.11882 -1.45521,-0.27138 0,-0.15555 -0.33316,-0.0991 -0.78061,0.13229 -0.42934,0.22202 -1.36109,0.40367 -2.07055,0.40367 -1.043976,0 -1.412242,-0.13003 -1.93137,-0.68196 z"
         id="path872" />
      <path
         style="fill:#194e5b;fill-opacity:1;stroke-width:0.26458335"
         d="m 76.257001,142.14527 c -0.49488,-0.62914 -0.54837,-1.05494 -0.54837,-4.36562 v -3.66849 h -0.66146 c -0.52916,0 -0.66146,-0.13229 -0.66146,-0.66145 0,-0.52917 0.1323,-0.66146 0.66146,-0.66146 0.60496,0 0.66146,-0.0991 0.66146,-1.15977 0,-0.97906 0.0928,-1.18462 0.59531,-1.3193 1.15798,-0.31033 1.25678,-0.21944 1.25678,1.15615 v 1.32292 h 1.05833 c 0.9525,0 1.05833,0.0661 1.05833,0.66146 0,0.59531 -0.10583,0.66145 -1.05833,0.66145 h -1.05833 v 3.40719 c 0,3.72954 0.16332,4.16946 1.4299,3.85157 0.62897,-0.15787 0.68676,-0.10316 0.68676,0.65006 0,0.81917 -0.006,0.82243 -1.436,0.82243 -1.23621,0 -1.51231,-0.097 -1.98438,-0.69714 z"
         id="path870" />
      <path
         style="fill:#194e5b;fill-opacity:1;stroke-width:0.26458335"
         d="m 81.595611,142.56959 c -0.4946,-0.19881 -0.59531,-0.44217 -0.59531,-1.43844 0,-1.156 0.0286,-1.19915 0.79375,-1.19915 0.66081,0 0.79375,0.10604 0.79375,0.63315 0,1.00355 1.7248,1.33167 2.85154,0.54247 1.23919,-0.86796 0.64983,-1.72815 -1.98208,-2.89294 -1.85751,-0.82207 -2.45696,-1.53694 -2.45696,-2.93004 0,-0.74104 0.20648,-1.16829 0.89958,-1.86139 0.82431,-0.82431 1.0332,-0.89959 2.49632,-0.89959 0.8782,0 1.90214,0.11612 2.27542,0.25804 0.5905,0.22451 0.67868,0.41357 0.67868,1.45521 0,1.14778 -0.032,1.19717 -0.77618,1.19717 -0.65005,0 -0.78978,-0.11823 -0.85989,-0.7276 -0.0695,-0.60379 -0.22798,-0.74156 -0.93139,-0.80961 -1.24233,-0.12017 -1.98,0.36017 -1.88017,1.22428 0.0684,0.59196 0.4267,0.88552 2.15816,1.76814 2.09493,1.0679 2.79106,1.80874 2.80926,2.9897 0.0144,0.93563 -0.70948,2.11735 -1.56947,2.56207 -0.85541,0.44235 -3.72897,0.52085 -4.70501,0.12853 z"
         id="path868" />
    </g>
    <g
       style="fill:#216778"
       id="g897">
      <path
         style="fill:#216778;stroke-width:0.26458335"
         d="m 29.651107,142.16045 c -0.605142,-0.64337 -0.646307,-0.89037 -0.727577,-4.36562 l -0.08614,-3.68367 h -0.64146 c -0.507835,0 -0.64146,-0.13779 -0.64146,-0.66145 0,-0.63206 0.07056,-0.66146 1.5875,-0.66146 h 1.5875 l 0.0041,3.9026 c 0.0022,2.14643 0.09744,4.04964 0.21159,4.22935 0.388341,0.6114 1.714027,0.65391 2.628629,0.0843 l 0.859897,-0.53555 v -3.17889 -3.17889 h -0.661459 c -0.529166,0 -0.661458,-0.13229 -0.661458,-0.66145 0,-0.62538 0.07937,-0.66146 1.455208,-0.66146 h 1.455209 v 4.23333 4.23333 h 0.661458 c 0.529167,0 0.661458,0.1323 0.661458,0.66146 0,0.62538 -0.07937,0.66146 -1.455208,0.66146 -0.81804,0 -1.455208,-0.11882 -1.455208,-0.27138 0,-0.15555 -0.333161,-0.0991 -0.780611,0.13229 -0.429336,0.22202 -1.361082,0.40367 -2.070546,0.40367 -1.043977,0 -1.412241,-0.13003 -1.931369,-0.68196 z"
         id="path878" />
      <path
         style="fill:#216778;stroke-width:0.26458335"
         d="m 51.896133,142.65556 c -0.631759,-0.23095 -1.601346,-1.20029 -2.062623,-2.0621 -0.282059,-0.52698 -0.424559,-1.46068 -0.423987,-2.77813 0.0016,-3.4995 1.498081,-5.29167 4.418843,-5.29167 0.810096,0 1.77831,0.11612 2.151584,0.25804 0.604242,0.22973 0.678683,0.40386 0.678683,1.5875 0,1.30079 -0.01712,1.32946 -0.79375,1.32946 -0.70443,0 -0.79375,-0.0888 -0.79375,-0.78871 0,-0.61695 -0.141568,-0.82424 -0.650105,-0.95187 -0.92329,-0.23173 -2.005891,0.19829 -2.641087,1.04906 -0.426188,0.57084 -0.543319,1.11611 -0.53635,2.49686 0.01767,3.50016 1.405228,4.47239 4.819729,3.37706 0.530185,-0.17008 0.595313,-0.10147 0.595313,0.62716 0,0.63475 -0.152117,0.87596 -0.678683,1.07616 -0.714203,0.27154 -3.407312,0.31848 -4.083817,0.0712 z"
         id="path876" />
      <path
         style="fill:#216778;stroke-width:0.26458335"
         d="m 21.733633,141.91637 c 0,-0.52916 0.132291,-0.66146 0.661458,-0.66146 h 0.661458 v -3.57187 -3.57188 h -0.661458 c -0.529167,0 -0.661458,-0.13229 -0.661458,-0.66145 0,-0.52917 0.132291,-0.66146 0.661458,-0.66146 0.625844,0 0.661458,-0.0788 0.661458,-1.46371 0,-2.72883 1.124336,-4.09697 3.360299,-4.08893 1.965262,0.007 2.195951,0.17669 2.195951,1.61475 0,1.25923 -0.02017,1.29205 -0.79375,1.29205 -0.670277,0 -0.79375,-0.10289 -0.79375,-0.66145 0,-0.55683 -0.124092,-0.66146 -0.784441,-0.66146 -1.008789,0 -1.332225,0.60601 -1.332225,2.49614 v 1.47261 h 1.058333 c 0.9525,0 1.058333,0.0661 1.058333,0.66146 0,0.59531 -0.105833,0.66145 -1.058333,0.66145 h -1.058333 v 3.57188 c 0,3.39548 0.02613,3.57187 0.529166,3.57187 0.388056,0 0.529167,0.17639 0.529167,0.66146 0,0.65044 -0.03528,0.66146 -2.116667,0.66146 -2.081389,0 -2.116666,-0.011 -2.116666,-0.66146 z"
         id="path858" />
      <path
         style="fill:#216778;stroke-width:0.26458335"
         d="m 38.402383,141.91637 c 0,-0.52916 0.132291,-0.66146 0.661458,-0.66146 h 0.661458 v -3.57187 -3.57188 h -0.661458 c -0.529167,0 -0.661458,-0.13229 -0.661458,-0.66145 0,-0.62538 0.07937,-0.66146 1.455208,-0.66146 1.11713,0 1.455208,0.0922 1.455208,0.39687 0,0.52526 0.181084,0.50096 0.986137,-0.13229 0.48026,-0.37777 1.073357,-0.52917 2.07305,-0.52917 1.197655,0 1.479687,0.1009 1.948693,0.69714 0.494885,0.62915 0.54837,1.05495 0.54837,4.36563 v 3.66848 h 0.661459 c 0.529166,0 0.661458,0.1323 0.661458,0.66146 0,0.64676 -0.0441,0.66146 -1.984375,0.66146 -1.940278,0 -1.984375,-0.0147 -1.984375,-0.66146 0,-0.49349 0.139709,-0.66146 0.550193,-0.66146 0.533527,0 0.547553,-0.10449 0.463021,-3.44974 -0.06848,-2.70991 -0.172286,-3.50344 -0.484047,-3.70012 -0.6251,-0.39434 -1.174963,-0.30539 -2.143685,0.34678 l -0.899024,0.60525 -0.07454,3.09892 c -0.06348,2.63918 -0.01442,3.09891 0.330729,3.09891 0.255901,0 0.405272,0.2438 0.405272,0.66146 0,0.64676 -0.0441,0.66146 -1.984375,0.66146 -1.940278,0 -1.984375,-0.0147 -1.984375,-0.66146 z"
         id="path856" />
    </g>
    <g
       style="fill:#5f8dd3"
       transform="matrix(0.79278985,0,0,0.79278985,18.588601,29.331135)"
       id="g885">
      <path
         style="fill:#5f8dd3;stroke-width:0.26458335"
         d="m 89.683414,142.18096 c -0.44821,-0.98371 0.0753,-1.98563 1.03465,-1.98033 0.91947,0.005 1.27436,0.23558 1.50603,0.97814 0.29879,0.95771 -0.26001,1.66364 -1.3169,1.66364 -0.72714,0 -0.9862,-0.14002 -1.22378,-0.66145 z"
         id="path866" />
      <path
         style="fill:#5f8dd3;stroke-width:0.26458335"
         d="m 96.346134,142.65556 c -0.63176,-0.23095 -1.60134,-1.20029 -2.06262,-2.0621 -0.28206,-0.52698 -0.42456,-1.46068 -0.42399,-2.77813 0.002,-3.4995 1.49808,-5.29167 4.41885,-5.29167 0.81009,0 1.778296,0.11612 2.151576,0.25804 0.60424,0.22973 0.67868,0.40386 0.67868,1.5875 0,1.30079 -0.0171,1.32946 -0.79375,1.32946 -0.704426,0 -0.793746,-0.0888 -0.793746,-0.78871 0,-0.61695 -0.14157,-0.82424 -0.6501,-0.95187 -0.92329,-0.23173 -2.00589,0.19829 -2.64109,1.04906 -0.42619,0.57084 -0.54332,1.11611 -0.53635,2.49686 0.0177,3.50016 1.40523,4.47239 4.819726,3.37706 0.53018,-0.17008 0.59531,-0.10147 0.59531,0.62716 0,0.63475 -0.15212,0.87596 -0.67868,1.07616 -0.714196,0.27154 -3.407306,0.31848 -4.083816,0.0712 z"
         id="path864" />
      <path
         style="fill:#5f8dd3;stroke-width:1.00000012"
         d="m 404.46484,500.87695 c -10.48013,0 -16.08073,6.55277 -16.24023,19 -0.0986,7.69455 1.57821,12.85946 5.42187,16.70313 3.02223,3.02215 3.81407,3.29687 9.51368,3.29687 5.85811,0 6.43581,-0.21902 9.99023,-3.77343 7.91747,-7.91747 8.16884,-24.25109 0.49023,-31.92969 -2.98129,-2.98133 -3.86097,-3.29688 -9.17578,-3.29688 z m -1.76953,5.30274 c 1.05154,-0.0429 2.18532,0.17424 3.38672,0.67187 4.07872,1.68945 5.56055,5.29324 5.56055,13.52539 0,7.98509 -1.42627,11.68917 -5.15625,13.38867 -2.86874,1.30712 -3.16517,1.3035 -6.04102,-0.0859 -3.32969,-1.60872 -5.30261,-6.80442 -5.29883,-13.95313 0.005,-8.29054 2.99218,-13.36097 7.54883,-13.54687 z"
         transform="scale(0.26458333)"
         id="path862" />
      <path
         style="fill:#5f8dd3;stroke-width:0.26458335"
         d="m 112.22113,141.91637 c 0,-0.52916 0.13229,-0.66146 0.66146,-0.66146 h 0.66146 v -3.57187 -3.57188 h -0.66146 c -0.52917,0 -0.66146,-0.13229 -0.66146,-0.66145 0,-0.62538 0.0794,-0.66146 1.45521,-0.66146 1.11713,0 1.45521,0.0922 1.45521,0.39687 0,0.52526 0.18108,0.50096 0.98613,-0.13229 0.48205,-0.37918 1.07336,-0.52917 2.08616,-0.52917 1.21492,0 1.47417,0.0927 1.84595,0.66012 l 0.43252,0.66011 0.78451,-0.66011 c 0.62246,-0.52377 1.0769,-0.66012 2.2002,-0.66012 1.21427,0 1.49373,0.0992 1.96407,0.69714 0.49489,0.62915 0.54837,1.05495 0.54837,4.36563 v 3.66848 h 0.66146 c 0.52917,0 0.66146,0.1323 0.66146,0.66146 0,0.64676 -0.0441,0.66146 -1.98437,0.66146 -1.94028,0 -1.98438,-0.0147 -1.98438,-0.66146 0,-0.49371 0.13968,-0.66146 0.55075,-0.66146 0.53318,0 0.54794,-0.10521 0.46302,-3.29858 -0.0703,-2.64347 -0.17524,-3.38596 -0.52835,-3.73847 -0.52633,-0.52543 -1.40538,-0.36753 -2.4268,0.43592 -0.68946,0.54233 -0.70445,0.61849 -0.70445,3.57763 0,2.84711 0.0309,3.0235 0.52916,3.0235 0.38806,0 0.52917,0.17639 0.52917,0.66146 0,0.64256 -0.0529,0.66146 -1.85208,0.66146 -1.79917,0 -1.85209,-0.0189 -1.85209,-0.66146 0,-0.41157 0.14994,-0.66146 0.39688,-0.66146 0.33237,0 0.39688,-0.55753 0.39688,-3.43027 0,-3.18068 -0.0392,-3.45127 -0.53916,-3.71882 -0.63421,-0.33942 -1.27546,-0.17612 -2.21715,0.56462 -0.66343,0.52185 -0.68328,0.62529 -0.68328,3.56097 0,2.51117 0.0673,3.0235 0.39688,3.0235 0.24694,0 0.39687,0.24989 0.39687,0.66146 0,0.64676 -0.0441,0.66146 -1.98437,0.66146 -1.94028,0 -1.98438,-0.0147 -1.98438,-0.66146 z"
         id="path826" />
    </g>
  </g>
</svg>
