<?xml version="1.0" encoding="UTF-8" standalone="no"?>
<!-- Created with Inkscape (http://www.inkscape.org/) -->

<svg
   xmlns:dc="http://purl.org/dc/elements/1.1/"
   xmlns:cc="http://creativecommons.org/ns#"
   xmlns:rdf="http://www.w3.org/1999/02/22-rdf-syntax-ns#"
   xmlns:svg="http://www.w3.org/2000/svg"
   xmlns="http://www.w3.org/2000/svg"
   xmlns:sodipodi="http://sodipodi.sourceforge.net/DTD/sodipodi-0.dtd"
   xmlns:inkscape="http://www.inkscape.org/namespaces/inkscape"
   width="82.190323mm"
   height="21.364191mm"
   viewBox="0 0 82.190323 21.364191"
   version="1.1"
   id="svg8"
   inkscape:version="0.92.4 (unknown)"
   sodipodi:docname="logo.svg">
  <defs
     id="defs2" />
  <sodipodi:namedview
     id="base"
     pagecolor="#ffffff"
     bordercolor="#666666"
     borderopacity="1.0"
     inkscape:pageopacity="0.0"
     inkscape:pageshadow="2"
     inkscape:zoom="1.979899"
     inkscape:cx="127.5267"
     inkscape:cy="68.875146"
     inkscape:document-units="mm"
     inkscape:current-layer="layer1"
     showgrid="false"
     fit-margin-top="0"
     fit-margin-left="0"
     fit-margin-right="0"
     fit-margin-bottom="0"
     inkscape:window-width="1440"
     inkscape:window-height="742"
     inkscape:window-x="0"
     inkscape:window-y="0"
     inkscape:window-maximized="1"
     showguides="false" />
  <metadata
     id="metadata5">
    <rdf:RDF>
      <cc:Work
         rdf:about="">
        <dc:format>image/svg+xml</dc:format>
        <dc:type
           rdf:resource="http://purl.org/dc/dcmitype/StillImage" />
        <dc:title></dc:title>
      </cc:Work>
    </rdf:RDF>
  </metadata>
  <g
     inkscape:label="Layer 1"
     inkscape:groupmode="layer"
     id="layer1"
     transform="translate(-37.71877,-93.762199)">
    <path
       style="fill:#aaeeff;fill-opacity:1;stroke:none;stroke-width:0.20394598px;stroke-linecap:butt;stroke-linejoin:miter;stroke-opacity:1"
       d="m 35.046075,115.79456 c 0,0 18.422717,-4.24394 31.684486,-5.47427 13.261769,-1.23033 48.743169,-0.15723 48.743169,-0.15723 0,0 1.48327,0.10656 0.70847,1.72483 -0.7748,1.61826 -0.29513,2.39669 -2.4136,2.63078 -2.11847,0.23409 -48.487829,-5.60111 -78.722525,1.27589 z"
       id="path17"
       inkscape:connector-curvature="0" />
    <g
       id="g3750"
       style="fill:#004455">
      <path
         id="path3744"
         d="m 55.106139,110.2831 c -0.396524,-0.21518 -0.843008,-0.61931 -0.992187,-0.89805 -0.149648,-0.27962 -0.271236,-2.23439 -0.271236,-4.36066 v -3.85386 h 1.190625 1.190625 v 3.3012 c 0,3.17906 0.02315,3.31636 0.625745,3.71119 0.470531,0.30831 0.795245,0.34556 1.30908,0.1502 1.221183,-0.46429 1.581999,-1.39061 1.716095,-4.40573 l 0.122611,-2.75686 h 1.155943 1.155943 v 4.49792 4.49792 h -1.190625 c -1.046054,0 -1.190625,-0.0699 -1.190625,-0.57529 v -0.57529 l -0.595313,0.54223 c -1.320129,1.2024 -2.860262,1.46661 -4.226681,0.72508 z"
         style="fill:#004455;stroke-width:0.26458335"
         inkscape:connector-curvature="0" />
      <path
         id="path3740"
         d="m 79.375007,110.12816 c -2.674225,-0.98511 -3.807137,-4.15599 -2.447395,-6.84995 0.869831,-1.72334 2.20695,-2.41716 4.452707,-2.31047 1.10137,0.0523 2.003708,0.255 2.45672,0.55183 l 0.715991,0.46913 -0.568473,0.79835 c -0.40346,0.5666 -0.694169,0.74263 -1.001509,0.60642 -0.238172,-0.10555 -0.881107,-0.24483 -1.428744,-0.30951 -1.295731,-0.15303 -2.208205,0.44807 -2.547935,1.67847 -0.624004,2.25995 1.362601,4.13589 3.459906,3.26716 0.741021,-0.30694 0.847799,-0.28181 1.299556,0.30587 0.270711,0.35215 0.494848,0.77 0.498084,0.92854 0.01614,0.7911 -3.432474,1.40068 -4.888908,0.86416 z"
         style="fill:#004455;stroke-width:0.26458335"
         inkscape:connector-curvature="0" />
      <path
         id="path3736"
         d="m 46.1698,106.72678 v -3.43958 h -0.661458 c -0.595313,0 -0.661459,-0.10583 -0.661459,-1.05833 0,-0.93438 0.0728,-1.05834 0.621553,-1.05834 0.597595,0 0.627984,-0.0979 0.788385,-2.539771 0.247939,-3.77452 1.111657,-4.86856 3.843608,-4.86856 0.692944,0 1.46124,0.14883 1.707324,0.33073 0.418144,0.30908 0.414704,0.38429 -0.05257,1.14908 -0.431715,0.7066 -0.618257,0.80099 -1.366008,0.69125 -1.272621,-0.18678 -1.573544,0.39437 -1.573544,3.03889 v 2.198381 h 1.322917 1.322916 v 1.05834 1.05833 h -1.322916 -1.322917 v 3.43958 3.43959 h -1.322917 -1.322916 z"
         style="fill:#004455;stroke-width:0.26458335"
         inkscape:connector-curvature="0" />
      <path
         id="path3734"
         d="m 65.484383,105.66845 v -4.49792 h 1.027475 c 0.809746,0 1.057214,0.11373 1.167818,0.53667 0.137112,0.52433 0.163017,0.52129 1.126111,-0.13229 1.441278,-0.97807 3.250182,-0.93609 4.413483,0.10243 l 0.864071,0.77138 0.08566,3.85883 0.08567,3.85882 h -1.342437 -1.342435 v -3.25438 c 0,-2.1784 -0.104973,-3.35935 -0.3175,-3.57187 -0.821901,-0.8219 -2.585093,-0.0101 -3.138291,1.44492 -0.136607,0.3593 -0.248375,1.71709 -0.248375,3.0173 v 2.36403 h -1.190625 -1.190625 z"
         style="fill:#004455;stroke-width:0.26458335"
         inkscape:connector-curvature="0" />
    </g>
    <g
       id="g3756"
       style="fill:#006680">
      <path
         id="path3742"
         d="m 95.587388,110.2831 c -0.396523,-0.21518 -0.843008,-0.61931 -0.992188,-0.89805 -0.149648,-0.27962 -0.271235,-2.23439 -0.271235,-4.36066 v -3.85386 h 1.190625 1.190625 v 3.3012 c 0,3.17906 0.02315,3.31636 0.625745,3.71119 0.47053,0.30831 0.795245,0.34556 1.309079,0.1502 1.221185,-0.46429 1.581991,-1.39061 1.716091,-4.40573 l 0.12261,-2.75686 h 1.15594 1.15594 v 4.49792 4.49792 H 101.6 c -1.04605,0 -1.19062,-0.0699 -1.19062,-0.57529 v -0.57529 l -0.595316,0.54223 c -1.320125,1.2024 -2.860257,1.46661 -4.226676,0.72508 z"
         style="fill:#006680;stroke-width:0.26458335"
         inkscape:connector-curvature="0" />
      <path
         id="path3738"
         d="m 114.18093,109.85294 c -1.39214,-0.72434 -1.48616,-0.93008 -0.82096,-1.79643 0.47063,-0.61294 0.53343,-0.6269 0.98592,-0.21905 1.03361,0.93164 2.99682,0.90689 2.99682,-0.0378 0,-0.60134 -0.34843,-0.86624 -1.88583,-1.43373 -1.68073,-0.62039 -2.21522,-1.27942 -2.21522,-2.73137 0,-1.00359 0.132,-1.30248 0.86408,-1.95659 0.73338,-0.65528 1.08481,-0.77205 2.3236,-0.77205 0.80274,0 1.87752,0.17465 2.3884,0.38811 l 0.92887,0.38811 -0.41499,0.80251 c -0.48617,0.94014 -0.35321,0.90621 -1.56577,0.39957 -0.73038,-0.30517 -1.09521,-0.33294 -1.50348,-0.11444 -0.69126,0.36995 -0.55463,1.10334 0.26891,1.44343 3.09598,1.27853 3.79679,2.14871 3.1663,3.9315 -0.74334,2.10191 -3.26141,2.88161 -5.51665,1.7082 z"
         style="fill:#006680;stroke-width:0.26458335"
         inkscape:connector-curvature="0" />
      <path
         id="path3732"
         d="m 87.444799,106.59449 v -3.57187 h -0.79375 c -0.730753,0 -0.79375,-0.0735 -0.79375,-0.92604 0,-0.85255 0.063,-0.92605 0.79375,-0.92605 h 0.79375 v -1.984371 -1.98438 h 1.190625 1.190625 v 1.98438 1.984371 h 1.190625 c 1.184325,0 1.190625,0.005 1.190625,0.92605 0,0.92114 -0.0063,0.92604 -1.190625,0.92604 h -1.190625 v 3.57187 3.57188 h -1.190625 -1.190625 z"
         style="fill:#006680;stroke-width:0.26458335"
         inkscape:connector-curvature="0" />
      <path
         id="path3728"
         d="m 106.75937,106.59449 v -3.57187 h -0.79375 c -0.73075,0 -0.79375,-0.0735 -0.79375,-0.92604 0,-0.85255 0.063,-0.92605 0.79375,-0.92605 h 0.79375 v -1.984371 -1.98438 h 1.19063 1.19062 v 1.98438 1.984371 h 1.19063 c 1.18432,0 1.19062,0.005 1.19062,0.92605 0,0.92114 -0.006,0.92604 -1.19062,0.92604 h -1.19063 v 3.57187 3.57188 H 107.95 106.75937 Z"
         style="fill:#006680;stroke-width:0.26458335"
         inkscape:connector-curvature="0" />
    </g>
  </g>
</svg>
