<?xml version="1.0" encoding="UTF-8" standalone="no"?>
<!-- Created with Inkscape (http://www.inkscape.org/) -->

<svg
   xmlns:dc="http://purl.org/dc/elements/1.1/"
   xmlns:cc="http://creativecommons.org/ns#"
   xmlns:rdf="http://www.w3.org/1999/02/22-rdf-syntax-ns#"
   xmlns:svg="http://www.w3.org/2000/svg"
   xmlns="http://www.w3.org/2000/svg"
   xmlns:sodipodi="http://sodipodi.sourceforge.net/DTD/sodipodi-0.dtd"
   xmlns:inkscape="http://www.inkscape.org/namespaces/inkscape"
   width="49.877327mm"
   height="9.4888401mm"
   viewBox="0 0 49.877327 9.4888401"
   version="1.1"
   id="svg8"
   inkscape:version="0.92.4 (unknown)"
   sodipodi:docname="logo4.svg">
  <defs
     id="defs2" />
  <sodipodi:namedview
     id="base"
     pagecolor="#ffffff"
     bordercolor="#666666"
     borderopacity="1.0"
     inkscape:pageopacity="0.0"
     inkscape:pageshadow="2"
     inkscape:zoom="15.839192"
     inkscape:cx="53.963955"
     inkscape:cy="19.787052"
     inkscape:document-units="mm"
     inkscape:current-layer="layer1"
     showgrid="false"
     inkscape:window-width="1440"
     inkscape:window-height="742"
     inkscape:window-x="0"
     inkscape:window-y="0"
     inkscape:window-maximized="1"
     inkscape:snap-global="false"
     fit-margin-top="0"
     fit-margin-left="0"
     fit-margin-right="0"
     fit-margin-bottom="0" />
  <metadata
     id="metadata5">
    <rdf:RDF>
      <cc:Work
         rdf:about="">
        <dc:format>image/svg+xml</dc:format>
        <dc:type
           rdf:resource="http://purl.org/dc/dcmitype/StillImage" />
        <dc:title></dc:title>
      </cc:Work>
    </rdf:RDF>
  </metadata>
  <g
     inkscape:label="Layer 1"
     inkscape:groupmode="layer"
     id="layer1"
     transform="translate(-26.774606,-112.79421)">
    <text
       xml:space="preserve"
       style="font-style:normal;font-weight:normal;font-size:8.32150745px;line-height:1.25;font-family:sans-serif;letter-spacing:0px;word-spacing:0px;fill:#3691aa;fill-opacity:1;stroke:none;stroke-width:0.20803767"
       x="43.641109"
       y="120.5078"
       id="text817"><tspan
         sodipodi:role="line"
         id="tspan815"
         x="43.641109"
         y="120.5078"
         style="font-style:normal;font-variant:normal;font-weight:normal;font-stretch:normal;font-family:Signika;-inkscape-font-specification:Signika;letter-spacing:0.49976242px;fill:#3691aa;fill-opacity:1;stroke-width:0.20803767">functuts</tspan></text>
    <path
       style="fill:#3691aa;fill-opacity:1;stroke:none;stroke-width:0.26458332px;stroke-linecap:butt;stroke-linejoin:miter;stroke-opacity:1"
       d="m 28.14477,121.031 -0.07087,-7.22879 0.318918,-0.62602 0.696893,-0.27167 6.744513,-0.0354 1.488281,0.0118 2.256045,1.12212 0.05906,6.92169 -0.708705,0.0236 0.07087,-6.42559 -2.055245,-1.05125 -7.996559,0.0473 -0.188988,0.2008 -0.01181,0.51971 0.05906,6.80358 z"
       id="path1135"
       inkscape:connector-curvature="0" />
    <path
       style="fill:#d0d0d0;fill-opacity:1;stroke:none;stroke-width:0.25413561px;stroke-linecap:butt;stroke-linejoin:miter;stroke-opacity:1"
       d="m 29.516578,121.00301 v -7.45013 l -0.605589,-0.019 -0.136214,0.16536 -0.05449,0.49019 0.01635,6.85672 z"
       id="path1031"
       inkscape:connector-curvature="0" />
    <g
       id="g1014"
       transform="translate(0.13363476,-0.13363476)">
      <path
         sodipodi:nodetypes="ccccccscccscccc"
         inkscape:connector-curvature="0"
         id="path1010"
         d="m 27.883532,120.92346 c 0,0 -0.858234,0.0577 -0.988163,0.22312 -0.129931,0.16536 -0.2008,0.55515 -0.165364,0.61421 0.03543,0.0591 0.07087,0.59059 1.133927,0.57877 1.063059,-0.0118 6.283854,-0.0118 6.283854,-0.0118 l 5.859121,-0.0218 c 0,0 0.74661,-0.0545 0.668174,-0.7517 -0.07517,-0.66817 -1.077432,-0.45101 -1.077432,-0.45101 l -4.276907,-0.004 c 0,0 0.209399,0.17137 -0.04116,0.38852 -0.250565,0.21716 -0.267271,0.21716 -0.751697,0.21716 h -2.037929 c 0,0 -0.484426,-0.13363 -0.417608,-0.63476 -0.968859,-0.0334 -2.037932,-0.0501 -2.037932,-0.0501 z"
         style="fill:#3691aa;fill-opacity:1;stroke:none;stroke-width:0.26458332px;stroke-linecap:butt;stroke-linejoin:miter;stroke-opacity:1" />
      <path
         sodipodi:nodetypes="csscsssssssscccccssccsssscccssccsscsssssssscsssscscccc"
         id="path942-3"
         d="m 37.253913,112.92784 -8.277654,0.009 c -0.602523,6e-4 -1.092726,0.4902 -1.092726,1.09273 v 6.89389 h -0.788005 c -0.250709,0 -0.454557,0.20395 -0.454557,0.45456 v 0.26336 c 0,0.62772 0.510666,0.7753 1.138383,0.7753 h 11.872608 c 0.627717,0 1.138382,-0.14758 1.138382,-0.7753 v -0.26336 c 0,-0.25061 -0.203848,-0.45456 -0.454561,-0.45456 h -0.787892 l -0.01469,-6.91048 m -0.77018,0.88697 -0.04878,6.02316 h -9.997712 v -6.9843 c 0,-0.0932 0.0758,-0.16857 0.168976,-0.16898 l 7.902481,-0.0345 m -1.600669,7.41361 v 0.17503 c 0,0.22893 -0.186247,0.26578 -0.415178,0.26578 h -2.113075 c -0.228928,0 -0.415287,-0.0368 -0.415287,-0.26578 v -0.17503 z m 1.726768,-7.63177 -8.02858,0.0273 c -0.217381,6e-4 -0.394276,0.177 -0.394276,0.39428 v 6.98464 h -0.382395 v -6.89389 c 0,-0.47831 0.389104,-0.86652 0.867425,-0.86742 l 8.151668,-0.0153 m 3.207858,8.00193 c 0.126401,0 0.229151,0.10287 0.229151,0.22927 v 0.26336 c 0,0.50341 -0.409567,0.54999 -0.913083,0.54999 H 27.779354 c -0.503516,0 -0.913196,-0.0465 -0.913196,-0.54999 v -0.26336 c 0,-0.1264 0.102862,-0.22927 0.229262,-0.22927 0.0095,0 0.797243,3.2e-4 4.923056,3.2e-4 v 0.17492 c 0,0.35325 0.28735,0.49108 0.640588,0.49108 h 2.113075 c 0.353242,0 0.640478,-0.13783 0.640478,-0.49108 v -0.17492 c 0.303957,-7e-5 4.72229,-3.2e-4 4.923168,-3.2e-4 z m -0.9931,-6.86502 -0.02009,6.63972 h -0.38306 l 0.04557,-6.23865"
         inkscape:connector-curvature="0"
         style="fill:#3691aa;fill-opacity:1;stroke-width:0.02816256" />
    </g>
    <rect
       style="fill:#51aec7;fill-opacity:1;stroke:none;stroke-width:0.21576048"
       id="rect1016"
       width="0.74920666"
       height="2.3838394"
       x="-64.715836"
       y="101.08305"
       transform="rotate(-50.12602)" />
    <rect
       transform="rotate(-65.886107)"
       y="79.719376"
       x="-91.278717"
       height="1.9274061"
       width="0.60575622"
       id="rect1018"
       style="fill:#76bfd3;fill-opacity:1;stroke:none;stroke-width:0.17444886" />
  </g>
</svg>
