<?xml version="1.0" standalone="no"?>
<!DOCTYPE svg PUBLIC "-//W3C//DTD SVG 20010904//EN"
 "http://www.w3.org/TR/2001/REC-SVG-20010904/DTD/svg10.dtd">
<svg version="1.0" xmlns="http://www.w3.org/2000/svg"
 width="228.000000pt" height="228.000000pt" viewBox="0 0 228.000000 228.000000"
 preserveAspectRatio="xMidYMid meet">
<metadata>
Created by potrace 1.11, written by Peter Selinger 2001-2013
</metadata>
<g transform="translate(0.000000,228.000000) scale(0.100000,-0.100000)"
fill="#000000" stroke="none">
<path d="M1377 2064 c-1 -1 -56 -5 -122 -9 -66 -3 -136 -8 -155 -10 -19 -3
-87 -7 -150 -10 -63 -3 -135 -8 -160 -10 -45 -5 -105 -9 -300 -20 -58 -3 -125
-8 -150 -10 -43 -4 -256 -17 -310 -19 l-25 -1 -3 -442 -2 -441 81 -169 c166
-343 223 -461 285 -591 l64 -134 63 7 c34 3 78 8 97 10 41 5 302 33 380 41 30
3 89 9 130 14 41 5 107 12 145 15 39 3 81 8 95 10 14 2 50 7 80 10 30 3 71 8
90 10 19 2 64 7 100 10 36 3 76 8 90 10 14 2 54 7 90 10 36 3 76 8 90 10 14 2
59 7 100 11 41 3 83 8 93 10 10 1 52 6 93 10 42 3 83 7 93 8 15 3 16 49 19
528 l2 525 -127 104 c-71 57 -133 108 -140 114 -6 5 -86 71 -178 145 -92 74
-202 163 -244 198 l-76 63 -68 -3 c-37 -1 -69 -3 -70 -4z"/>
</g>
</svg>
