<?xml version="1.0" standalone="no"?>
<!DOCTYPE svg PUBLIC "-//W3C//DTD SVG 20010904//EN"
 "http://www.w3.org/TR/2001/REC-SVG-20010904/DTD/svg10.dtd">
<svg version="1.0" xmlns="http://www.w3.org/2000/svg"
 width="455.000000pt" height="455.000000pt" viewBox="0 0 455.000000 455.000000"
 preserveAspectRatio="xMidYMid meet">
<metadata>
Created by potrace 1.11, written by Peter Selinger 2001-2013
</metadata>
<g transform="translate(0.000000,455.000000) scale(0.100000,-0.100000)"
fill="#000000" stroke="none">
<path d="M695 3793 c-30 -4 -50 -11 -115 -42 -50 -24 -119 -98 -149 -161 l-26
-55 -3 -1152 -2 -1153 -140 0 c-146 0 -176 -6 -215 -42 -34 -33 -45 -69 -45
-151 0 -161 52 -232 195 -270 53 -14 281 -16 2075 -16 2149 -1 2071 -2 2167
47 79 41 109 101 111 227 2 101 -12 143 -61 179 -25 19 -45 21 -183 24 l-154
4 0 506 c-1 279 -2 712 -3 963 l-1 455 -405 322 -404 323 -1306 -3 c-718 -1
-1319 -3 -1336 -5z m2529 -280 c18 -16 66 -54 107 -85 154 -120 234 -183 239
-188 3 -3 23 -18 45 -35 22 -16 42 -32 45 -35 3 -3 46 -37 95 -74 50 -38 102
-80 116 -93 l27 -25 -4 -401 c-2 -221 -5 -615 -6 -874 l-3 -473 -1607 0 -1608
0 -1 23 c0 12 -1 521 -1 1130 -1 1046 0 1109 17 1127 21 23 20 23 1633 28
l874 3 32 -28z m-474 -2389 c0 -18 -4 -44 -9 -57 -19 -48 -44 -51 -470 -51
-353 1 -400 2 -428 18 -18 9 -33 20 -34 24 -1 4 -3 28 -5 53 l-4 46 475 0 475
0 0 -33z"/>
<path d="M3060 3316 c-38 -47 -70 -88 -69 -93 0 -4 131 -117 291 -250 l291
-241 73 88 c41 49 74 91 74 94 0 6 -19 25 -76 72 -150 126 -325 272 -363 303
-24 20 -62 53 -85 73 -22 21 -46 38 -53 38 -7 0 -44 -38 -83 -84z"/>
<path d="M2868 3001 l-56 -78 244 -179 c135 -99 249 -179 253 -179 10 0 111
134 111 147 0 3 -57 48 -127 100 -71 51 -146 106 -169 123 -22 16 -51 38 -65
47 -13 10 -48 36 -78 58 -30 22 -55 40 -55 40 -1 0 -27 -36 -58 -79z"/>
</g>
</svg>
